<?xml version="1.0" encoding="UTF-8"?>
<svg width="375.2" height="59" version="1.1" viewBox="0 0 375.2 59" xml:space="preserve" xmlns="http://www.w3.org/2000/svg">
<style type="text/css">
	.st0{fill:#303030;}
</style>









<g transform="translate(2.9323 4.2653)" fill="#303030"><polygon class="st0" points="15.2 22.5 17.6 9 39.4 9 41 0 9 0 0 50.7 10.2 50.7 13.6 31.6 33.4 31.6 35 22.5"/><path class="st0" d="m54.4 8.9h7.2c4.6 0 7.8 2.5 7.8 7 0 5.4-3.4 8.6-9.3 8.6h-8.5zm-8.7-8.9-8.9 50.7h10.2l3.1-17.7h7.7l7.8 17.8h10.7l-8.7-19c7.1-2.4 12.1-8.1 12.1-16.3 0.1-10.3-7.5-15.5-17-15.5z"/><path class="st0" d="m92.2 26.5c0-10.9 6.3-18 16.1-18 8.5 0 14.5 6.2 14.5 15.8 0 10.9-6.3 18-16.1 18-8.5 0-14.5-6.2-14.5-15.8m-10.5-0.2c0 14.7 10.7 25.1 24.6 25.1 14.5 0 27-10.4 27-26.9 0-14.7-10.7-25.1-24.7-25.1-14.5 0-26.9 10.4-26.9 26.9"/><path class="st0" d="m143-0.4-9 51.2h9.5l4-22.2c0.7-3.5 1-9.1 1-9.3 0.2 0.4 2.5 4.6 4.7 7.2l20.6 24.7h1l9-51.2h-9.5l-4 22.3c-0.7 3.9-0.9 9.2-0.9 9.3-0.2-0.4-2.5-4.7-4.7-7.3l-20.7-24.7z"/><polygon class="st0" points="187.1 0 185.5 9 199.7 9 192.4 50.7 202.7 50.7 210 9 224.1 9 225.7 0"/><polygon class="st0" points="231.8 41.8 239.2 0 228.9 0 220 50.7 252.7 50.7 254.3 41.8"/><polygon class="st0" points="265.4 0 256.4 50.7 266.7 50.7 275.6 0"/><path class="st0" d="m282.7-0.4-9 51.2h9.5l4-22.2c0.7-3.5 1-9.1 1-9.3 0.2 0.4 2.5 4.6 4.7 7.2l20.6 24.7h1l9-51.2h-9.6l-4 22.3c-0.7 3.9-0.9 9.2-0.9 9.3-0.2-0.4-2.5-4.7-4.7-7.3l-20.6-24.7z"/><polygon class="st0" points="333.1 41.8 335.3 29.7 355.2 29.7 356.8 20.9 336.9 20.9 339 9 361.7 9 363.3 0 330.4 0 321.4 50.7 355.3 50.7 356.9 41.8"/><path class="st0" d="m366 44.9h-0.7v1.2h0.7c0.4 0 0.6-0.3 0.6-0.6s-0.2-0.6-0.6-0.6m0.6 3.8-0.9-1.8h-0.5v1.8h-1v-4.7h1.9c1 0 1.6 0.7 1.6 1.5 0 0.6-0.4 1.1-0.9 1.2l1 2zm-0.8-5.7c-1.9 0-3.4 1.5-3.4 3.4 0 2 1.5 3.4 3.4 3.4s3.4-1.5 3.4-3.4c0-2-1.5-3.4-3.4-3.4m0 7.8c-2.4 0-4.4-2-4.4-4.4s2-4.4 4.4-4.4 4.4 2 4.4 4.4-1.9 4.4-4.4 4.4"/></g>
</svg>
