<svg xmlns="http://www.w3.org/2000/svg" viewBox="0 0 1200 900" fill="none">
  <rect width="1200" height="900" rx="56" fill="url(#hero-bg)"/>
  <defs>
    <linearGradient id="hero-bg" x1="80" y1="72" x2="1100" y2="860" gradientUnits="userSpaceOnUse">
      <stop stop-color="#E0F2FF"/>
      <stop offset="1" stop-color="#F7EFE4"/>
    </linearGradient>
  </defs>
  <circle cx="220" cy="194" r="128" fill="#FFFFFF" fill-opacity=".34"/>
  <circle cx="954" cy="248" r="144" fill="#E8F3DC"/>
  <rect x="118" y="144" width="964" height="612" rx="46" fill="#FFFFFF" fill-opacity=".78" stroke="#E7DFD2" stroke-width="8"/>
  <rect x="188" y="250" width="380" height="40" rx="20" fill="#1E1A47" fill-opacity=".12"/>
  <rect x="188" y="320" width="318" height="24" rx="12" fill="#1E1A47" fill-opacity=".08"/>
  <rect x="188" y="372" width="240" height="24" rx="12" fill="#1E1A47" fill-opacity=".08"/>
  <rect x="188" y="462" width="206" height="48" rx="24" fill="#BF8857" fill-opacity=".18"/>
  <rect x="676" y="220" width="278" height="356" rx="38" fill="#F4F8FB" stroke="#D9E2EA" stroke-width="8"/>
  <circle cx="815" cy="356" r="86" fill="#76A83C" fill-opacity=".16"/>
  <path d="M815 286C855.869 286 889 319.131 889 360C889 400.869 855.869 434 815 434C774.131 434 741 400.869 741 360C741 319.131 774.131 286 815 286ZM782 368H848" stroke="#1E1A47" stroke-opacity=".24" stroke-width="18" stroke-linecap="round"/>
</svg>
