<svg xmlns="http://www.w3.org/2000/svg" viewBox="0 0 1200 900" fill="none">
  <defs>
    <linearGradient id="consultSky" x1="0" y1="0" x2="1" y2="1">
      <stop offset="0%" stop-color="#D8E8F8"/>
      <stop offset="100%" stop-color="#BDD9F0"/>
    </linearGradient>
  </defs>
  <rect width="1200" height="900" rx="56" fill="url(#consultSky)"/>
  <circle cx="214" cy="214" r="156" fill="#ffffff" fill-opacity=".3"/>
  <circle cx="958" cy="190" r="172" fill="#E8F3DC" fill-opacity=".8"/>
  <circle cx="1026" cy="686" r="188" fill="#ffffff" fill-opacity=".24"/>
  <rect x="698" y="130" width="338" height="566" rx="44" fill="#ffffff" fill-opacity=".96"/>
  <rect x="734" y="186" width="266" height="400" rx="30" fill="#F4F8FB"/>
  <rect x="778" y="220" width="178" height="26" rx="13" fill="#17324D" fill-opacity=".14"/>
  <rect x="778" y="266" width="124" height="22" rx="11" fill="#76A83C" fill-opacity=".34"/>
  <rect x="778" y="334" width="180" height="18" rx="9" fill="#17324D" fill-opacity=".12"/>
  <rect x="778" y="370" width="142" height="18" rx="9" fill="#17324D" fill-opacity=".12"/>
  <rect x="778" y="406" width="192" height="18" rx="9" fill="#17324D" fill-opacity=".12"/>
  <rect x="778" y="466" width="154" height="44" rx="22" fill="#76A83C"/>
  <rect x="754" y="624" width="226" height="18" rx="9" fill="#17324D" fill-opacity=".1"/>
  <rect x="754" y="656" width="156" height="18" rx="9" fill="#76A83C" fill-opacity=".3"/>
  <circle cx="286" cy="548" r="170" fill="#ffffff" fill-opacity=".56"/>
  <image href="/images/brand/logo-bordervet-transparent.png" x="96" y="250" width="420" height="520" preserveAspectRatio="xMidYMid meet"/>
  <path d="M94 752c72-74 156-112 252-112 74 0 150 20 236 66" stroke="#76A83C" stroke-width="16" stroke-linecap="round"/>
  <path d="M164 800c64-38 124-56 198-56 52 0 98 10 146 29" stroke="#DCCFB7" stroke-width="12" stroke-linecap="round"/>
  <path d="M0 836c74-38 154-58 242-58 104 0 190 31 270 31 74 0 136-23 206-23 78 0 148 29 226 29 96 0 175-34 256-34v119H0V836Z" fill="#fff"/>
</svg>
